<svg width="74" height="74" viewBox="0 0 74 74" fill="none" xmlns="http://www.w3.org/2000/svg">
<g clip-path="url(#clip0_454_7)">
<circle cx="54.9776" cy="54.9776" r="2.1236" fill="#11131A"/>
<circle cx="71.0225" cy="59.6967" r="3.06742" fill="#11131A"/>
<circle cx="59.6963" cy="71.0225" r="3.06742" fill="#11131A"/>
<circle cx="48.3706" cy="59.6967" r="3.06742" fill="#11131A"/>
<circle cx="59.6963" cy="48.3708" r="3.06742" fill="#11131A"/>
<circle cx="54.9776" cy="63.9438" r="2.1236" fill="#11131A"/>
<circle cx="63.9439" cy="54.9776" r="2.1236" fill="#11131A"/>
<circle cx="63.9439" cy="63.9438" r="2.1236" fill="#11131A"/>
<circle cx="59.6966" cy="59.6967" r="1.65169" fill="#11131A"/>
<circle cx="54.9776" cy="9.67416" r="2.1236" fill="#11131A"/>
<circle cx="71.0225" cy="14.3933" r="3.06742" fill="#11131A"/>
<circle cx="59.6963" cy="25.7191" r="3.06742" fill="#11131A"/>
<circle cx="48.3706" cy="14.3933" r="3.06742" fill="#11131A"/>
<circle cx="59.6963" cy="3.06742" r="3.06742" fill="#11131A"/>
<circle cx="54.9776" cy="18.6404" r="2.1236" fill="#11131A"/>
<circle cx="63.9439" cy="9.67416" r="2.1236" fill="#11131A"/>
<circle cx="63.9439" cy="18.6404" r="2.1236" fill="#11131A"/>
<circle cx="59.6966" cy="14.3933" r="1.65169" fill="#11131A"/>
<circle cx="71.0225" cy="37.045" r="3.06742" fill="#11131A"/>
<circle cx="71.0225" cy="59.6967" r="3.06742" fill="#11131A"/>
<circle cx="71.0225" cy="14.3933" r="3.06742" fill="#11131A"/>
<circle cx="37.045" cy="71.0224" r="3.06742" fill="#11131A"/>
<circle cx="14.3931" cy="71.0224" r="3.06742" fill="#11131A"/>
<circle cx="59.6963" cy="71.0224" r="3.06742" fill="#11131A"/>
</g>
<defs>
<clipPath id="clip0_454_7">
<rect width="74" height="74" fill="white"/>
</clipPath>
</defs>
</svg>
